<?xml version="1.0" encoding="utf-8"?>
<!-- Generator: Adobe Illustrator 22.1.0, SVG Export Plug-In . SVG Version: 6.00 Build 0)  -->
<svg version="1.1" id="Layer_1" xmlns="http://www.w3.org/2000/svg" xmlns:xlink="http://www.w3.org/1999/xlink" x="0px" y="0px"
	 viewBox="0 0 216 302.9" style="enable-background:new 0 0 216 302.9;" xml:space="preserve">
<style type="text/css">
	.st0{fill:#FFFFFF;}
</style>
<path class="st0" d="M202,34.9L153.3,9.3l-7.6,14.5l48.7,25.5L202,34.9z M139.1,174.9h12.4l2.7-5.3L139.1,159V174.9z M133.4,47.3
	l48.7,25.5l7.6-14.5L141,32.8L133.4,47.3z M5.4,107.6c1.3,4.4,2.6,8.8,4,13.2l0.1,0.4c1.1,3.7,2.2,7.5,3.5,11.2
	c2.3,6.3,7.2,8.6,8.2,9l4.9,2c0,0,0,0,0,0c0,0.1,5,11.7,15.1,12.7h0l8.3-15.9l9.7,5.1l-15.6,29.7h11.3l55.3-105.6l5.7,3l53,27.8
	c0.2,0.3,0.4,0.5,0.7,0.8c0.2,0.3,0.4,0.5,0.6,0.8c0.2,0.3,0.3,0.5,0.5,0.8c0,0,0,0,0,0c0.2,0.3,0.3,0.5,0.5,0.8c0,0,0,0,0,0
	c0.1,0.2,0.3,0.5,0.4,0.7c0,0,0,0,0,0c0.1,0.2,0.2,0.5,0.3,0.7l0,0c0.1,0.2,0.2,0.5,0.3,0.7c0.1,0.2,0.2,0.5,0.2,0.7
	c0.1,0.2,0.1,0.5,0.2,0.7c0.1,0.2,0.1,0.4,0.1,0.7c0,0.2,0.1,0.4,0.1,0.7c0,0.2,0,0.4,0.1,0.6c0,0.2,0,0.4,0,0.6c0,0.2,0,0.4,0,0.6
	c0,0.2,0,0.4,0,0.6c0,0.2,0,0.4-0.1,0.6c0,0.2-0.1,0.3-0.1,0.5c0,0.2-0.1,0.3-0.1,0.5c0,0.2-0.1,0.3-0.1,0.5c-1,3.2-3.5,5.4-5.6,7.9
	c-2.4,2.8-4.2,6.1-5.3,9.7c-2.2,7.4,1.1,14.8,7.3,19.1v6.2l-26.9-18.8H87.5l-20,38.2h11.4l14.8-28.2h45.6l30.1,21v7.1h10.1v-31.8
	l-3.1-1.3c0,0,0,0-0.1,0c-3.5-1.7-5.7-5.4-4.4-9.3c1.7-4.8,6.1-7.8,8.6-12.1c0.4-0.7,0.7-1.3,1.1-2l0-0.1c1.3-2.9,2.1-6.5,1.8-10.5
	c2.1,1.6,5.6,5,6,9.5c0.3,3.7-1.6,7.7-5.6,11.9l9.2,4.8c4.9-5.8,7-11.7,6.5-17.7c-1.1-11.4-11.9-17.9-12.4-18.2l-0.2-0.1l-65.2-34.2
	l-6.3-3.3l29.2-55.8L135.5,0L64,136.3l-18.6-9.7l-7.9,15c-0.9-0.9-2.8-3.2-3.9-6.1l-0.2-0.1l0,0l-8.5-3.4c-0.2-0.1-1.7-0.9-2.5-3
	c-1.6-4.5-2.9-9.1-4.3-13.7c-0.7-2.3-1.4-4.5-2-6.8c-0.7-2.2-1.6-4.5-1.9-6.8c-0.2-1.3-0.1-2.6-0.1-3.9c0.1-3.1,0.5-6.2,1.6-9.1
	c0.7-1.8,1.6-3.6,2.9-5c2.9-3.4,7.2-5,13.2-5h2.6c-0.4,4.4-2.1,8.7-5,12.1l7.7,6.5c4.4-5.2,6.9-11.8,7.3-18.5h9l1.5-2.2
	c0.7-1,15.5-21.8,37.2-15.9l4.8-9.1c-11.7-3.9-23.6-2.3-34.7,4.7c-6.8,4.2-11.5,9.5-13.9,12.4h-5c-1.2-4.5-3.4-8.7-6.5-12.3
	l-7.6,6.6c1.5,1.7,2.7,3.7,3.6,5.8h-1.1c-8.9,0-15.9,2.9-20.8,8.5C6.9,82,4.9,88.3,4.3,94.5c-0.3,3.3-0.2,6.5,0.3,9.7
	C4.8,105.4,5.1,106.5,5.4,107.6z M75.5,261.5h12v-3.9h-7.1V255h6.7v-3.6h-6.7v-2.5h7.1V245h-12V261.5z M111,248.9h4.8v12.6h4.9
	v-12.6h4.8V245H111V248.9z M183.6,225.6h0.4l0.6,0.8h0.6l-0.6-0.9c0.3-0.1,0.5-0.3,0.5-0.7c0-0.4-0.3-0.7-0.8-0.7h-1.1v2.3h0.5
	V225.6z M183.6,224.6h0.5c0.3,0,0.4,0.1,0.4,0.3c0,0.2-0.1,0.3-0.4,0.3h-0.5V224.6z M92.3,248.9h4.8v12.6h4.9v-12.6h4.8V245H92.3
	V248.9z M110.6,222.2h-4.7v8.6l-6.6-8.6h-3.9v16.5h4.7v-8.6l6.5,8.5l0.1,0.1h3.8V222.2z M113.8,267.8c-3.5,0-5.7,2.3-5.7,5.8
	c0,3.5,2.2,5.8,5.7,5.8c3.4,0,5.7-2.3,5.7-5.8C119.5,270.1,117.3,267.8,113.8,267.8z M113.8,276.6c-1.4,0-2.2-1.1-2.2-3
	c0-1.8,0.9-3,2.2-3c1.3,0,2.2,1.2,2.2,3C116,275.4,115.1,276.6,113.8,276.6z M102.8,275c-0.1,1-0.9,1.6-1.9,1.6
	c-1.3,0-2.1-1.1-2.1-3c0-1.8,0.8-2.9,2.1-2.9c1,0,1.8,0.6,1.9,1.6l0,0.3h3.3l0-0.3c-0.1-2.5-2.3-4.4-5.2-4.4c-3.4,0-5.6,2.2-5.6,5.8
	c0,3.6,2.1,5.8,5.6,5.8c3,0,5.1-1.8,5.2-4.4l0-0.3h-3.3L102.8,275z M123.4,275.6c-1.1,0-1.8,0.7-1.8,1.8c0,1.1,0.7,1.8,1.8,1.8
	c1.1,0,1.9-0.7,1.9-1.8C125.3,276.3,124.5,275.6,123.4,275.6z M140.1,222.2h-4.9v16.5h4.9V222.2z M81.7,239.2c5.1,0,8.5-3.4,8.5-8.7
	c0-5.3-3.3-8.7-8.5-8.7c-5.2,0-8.5,3.4-8.5,8.7C73.3,235.8,76.5,239.2,81.7,239.2z M81.7,225.8c2.1,0,3.5,1.8,3.5,4.7
	c0,2.8-1.4,4.7-3.5,4.7c-2.1,0-3.5-1.8-3.5-4.7C78.2,227.6,79.6,225.8,81.7,225.8z M65.5,245l-5.2,6.5V245h-4.9v16.5h4.9v-4.7
	l1.1-1.3l4,6h5.7l-6.3-9.2l6-7.4H65.5z M93,216h3.4v-8.3h3.1v-2.8h-9.7v2.8H93V216z M184,227.7c1.3,0,2.4-1.1,2.4-2.4
	c0-1.3-1.1-2.4-2.4-2.4c-1.3,0-2.4,1.1-2.4,2.4C181.6,226.6,182.7,227.7,184,227.7z M184,223.4c1,0,1.9,0.8,1.9,1.9
	c0,1-0.8,1.9-1.9,1.9c-1,0-1.9-0.8-1.9-1.9C182.1,224.3,183,223.4,184,223.4z M216,194.9V185H0V195h0c0.1,59.5,48.5,107.8,108,107.8
	C167.6,302.9,216,254.4,216,194.9L216,194.9z M108,292.8c-54,0-97.9-43.8-97.9-97.8h195.9C205.9,249,162,292.8,108,292.8z
	 M59.3,233.2h1.6l2.8,5.6h5.5l-3.4-6.3c1.7-0.9,2.7-2.6,2.7-4.6c0-3.5-2.4-5.6-6.5-5.6h-7.6v16.5h4.9V233.2z M59.3,225.9h2.1
	c1.3,0,2.1,0.7,2.1,1.9c0,1.2-0.8,1.9-2.1,1.9h-2.2V225.9z M105.8,211.8h3.7v4.2h3.4v-11.1h-3.4v4.1h-3.7v-4.1h-3.4V216h3.4V211.8z
	 M42.2,238.7v-5.9h6.4v-3.8h-6.4v-2.9h7v-3.9H37.3v16.5H42.2z M147.6,261.5h12v-3.9h-7.1V255h6.7v-3.6h-6.7v-2.5h7.1V245h-12V261.5z
	 M168.8,233.2h1.6l2.8,5.6h5.5l-3.4-6.3c1.7-0.9,2.7-2.6,2.7-4.6c0-3.5-2.4-5.6-6.5-5.6h-7.6v16.5h4.9V233.2z M168.8,225.9h2.1
	c1.3,0,2.1,0.7,2.1,1.9c0,1.2-0.8,1.9-2.1,1.9h-2.2V225.9z M120.5,238.7h4.9v-12.6h4.8v-3.9h-14.4v3.9h4.8V238.7z M158.2,234.8H151
	v-2.6h6.7v-3.6H151v-2.5h7.1v-3.9h-12v16.5h12V234.8z M142.4,257.5h-7V245h-4.9v16.5h11.9V257.5z M124.5,213.2h-4.7v-1.5h4.4v-2.6
	h-4.4v-1.4h4.7v-2.8h-8.1V216h8.1V213.2z"/>
</svg>
