<?xml version="1.0" encoding="utf-8"?>
<!-- Generator: Adobe Illustrator 22.1.0, SVG Export Plug-In . SVG Version: 6.00 Build 0)  -->
<svg version="1.1" id="Layer_1" xmlns="http://www.w3.org/2000/svg" xmlns:xlink="http://www.w3.org/1999/xlink" x="0px" y="0px"
	 viewBox="0 0 216 216" style="enable-background:new 0 0 216 216;" xml:space="preserve">
<path d="M199.4,119.5l-0.2-0.1l-71.1-37.3l-6.9-3.6l31.9-60.9l-9.7-5.1l-78,148.8l-20.3-10.6l-8.6,16.4c-1-1-3-3.5-4.2-6.6l-0.2-0.1
	l0,0l-9.3-3.7c-0.3-0.1-1.8-0.9-2.7-3.3c-1.7-4.9-3.2-9.9-4.6-14.9c-0.7-2.5-1.5-5-2.2-7.4c-0.7-2.4-1.8-4.9-2.1-7.4
	c-0.2-1.4-0.2-2.8-0.1-4.2c0.1-3.4,0.6-6.8,1.7-9.9c0.7-2,1.8-3.9,3.2-5.5c3.2-3.7,7.9-5.4,14.4-5.4h2.9c-0.4,4.8-2.3,9.5-5.4,13.2
	l8.4,7c4.8-5.7,7.6-12.8,8-20.2H54l1.6-2.4c0.7-1.1,16.9-23.8,40.6-17.3l5.2-9.9c-12.8-4.2-25.7-2.5-37.8,5.1
	C56.2,78.7,51,84.4,48.4,87.5H43c-1.3-4.9-3.8-9.5-7.1-13.5l-8.3,7.1c1.6,1.9,2.9,4,3.9,6.3h-1.1c-9.8,0-17.4,3.1-22.7,9.3
	C3,102,0.9,108.9,0.2,115.7c-0.3,3.6-0.3,7.1,0.4,10.6c0.2,1.2,0.5,2.4,0.9,3.6c1.4,4.8,2.9,9.6,4.3,14.5l0.1,0.4
	c1.2,4.1,2.4,8.2,3.8,12.2c2.5,6.9,7.8,9.4,9,9.8l5.4,2.2c0,0,0,0,0,0c0,0.1,5.5,12.7,16.5,13.9h0l9.1-17.4l10.6,5.5l-17,32.4h12.4
	l60.4-115.2l6.3,3.3l57.9,30.3c0.2,0.3,0.5,0.6,0.7,0.9c0.2,0.3,0.4,0.6,0.6,0.9c0.2,0.3,0.4,0.6,0.6,0.8c0,0,0,0,0,0
	c0.2,0.3,0.3,0.6,0.5,0.8c0,0,0,0,0,0c0.2,0.3,0.3,0.5,0.4,0.8c0,0,0,0,0,0c0.1,0.3,0.3,0.5,0.4,0.8l0,0c0.1,0.3,0.2,0.5,0.3,0.8
	c0.1,0.3,0.2,0.5,0.3,0.8c0.1,0.2,0.1,0.5,0.2,0.7c0.1,0.2,0.1,0.5,0.2,0.7c0,0.2,0.1,0.5,0.1,0.7c0,0.2,0.1,0.5,0.1,0.7
	c0,0.2,0,0.4,0,0.7c0,0.2,0,0.4,0,0.6c0,0.2,0,0.4,0,0.6c0,0.2,0,0.4-0.1,0.6c0,0.2-0.1,0.4-0.1,0.6c0,0.2-0.1,0.4-0.1,0.6
	c0,0.2-0.1,0.3-0.1,0.5c-1,3.5-3.8,5.9-6.1,8.6c-2.6,3.1-4.6,6.7-5.8,10.6c-2.4,8,1.2,16.2,7.9,20.8v6.7l-29.4-20.5H91l-21.9,41.7
	h12.4l16.1-30.7h49.7l32.8,23v7.8h11v-34.7l-3.4-1.4c0,0,0,0-0.1,0c-3.8-1.9-6.3-5.9-4.8-10.2c1.9-5.3,6.6-8.5,9.4-13.2
	c0.4-0.7,0.8-1.5,1.2-2.2l0-0.1c1.4-3.2,2.3-7.1,1.9-11.5c2.2,1.8,6.1,5.5,6.5,10.3c0.4,4-1.7,8.4-6.2,13l10,5.2
	c5.3-6.3,7.7-12.8,7.1-19.3C211.8,127,199.9,119.8,199.4,119.5z M141.1,64.2l53.2,27.9l8.3-15.9l-53.2-27.9L141.1,64.2z
	 M147.4,203.5H161l3-5.8l-16.6-11.6V203.5z M216,50.6l-53.2-27.9l-8.3,15.9l53.2,27.9L216,50.6z"/>
</svg>
